<svg width="61" height="60" viewBox="0 0 61 60" fill="none" xmlns="http://www.w3.org/2000/svg">
<path d="M28.1562 0.597656C21.8516 2.76562 14.7734 4.40625 7.76562 5.34375C5.30469 5.67188 4.95312 5.78906 4.51953 6.44531L4.25 6.83203V17.7188C4.25 28.5469 4.28516 29.6016 4.67188 31.9336C6.07812 40.3125 10.8594 48.2578 17.6094 53.3906C20.1055 55.2891 22.0156 56.3672 26.8438 58.582C29.457 59.7891 30.0078 60 30.5 60C30.9922 60 31.543 59.7891 34.1562 58.582C35.8555 57.8086 37.8477 56.8477 38.5859 56.4609C45.2656 52.9688 50.75 47.0859 53.8555 40.0781C54.9336 37.6172 55.5312 35.7539 56.1055 33.0586C56.7266 30.0703 56.75 29.5547 56.75 17.7422V6.83203L56.4805 6.44531C56.0586 5.80078 55.6719 5.66016 53.6445 5.39062C46.5195 4.46484 39.5 2.84766 32.9609 0.644531C30.5469 -0.164062 30.3945 -0.164062 28.1562 0.597656ZM32.5977 4.61719C38.7031 6.62109 45.5352 8.20312 51.8867 9.05859L52.9414 9.19922L52.9766 17.0508C53.0117 25.8984 52.918 28.7812 52.4844 31.2891C50.9492 40.2539 45.3828 48.1641 37.4141 52.6758C36.1953 53.3672 30.7695 55.8984 30.5 55.8984C30.2305 55.8984 24.7812 53.3555 23.5859 52.6758C15.5586 48.082 10.0508 40.2773 8.51562 31.2891C8.08203 28.7812 7.98828 25.8984 8.02344 17.0508L8.05859 9.19922L8.82031 9.10547C14.2812 8.46094 22.5781 6.5625 28.332 4.62891C29.3633 4.28906 30.3125 3.99609 30.4297 3.99609C30.5586 3.98438 31.5312 4.26562 32.5977 4.61719Z" fill="white"/>
<path d="M28.4492 13.3477C26.5039 13.9102 24.7578 15.3164 23.8555 17.0508C23.1641 18.3867 23 19.1485 23 20.9649V22.5H22.5898C21.3945 22.5 19.9531 23.5547 19.4961 24.7852C19.2617 25.418 19.25 25.6289 19.25 32.8125C19.25 39.9727 19.2617 40.207 19.4961 40.8281C19.7891 41.6133 20.5039 42.3867 21.3008 42.7735L21.8867 43.0664L30.3477 43.1016C38.6914 43.125 38.8086 43.125 39.4648 42.8789C40.332 42.5508 41.1758 41.7188 41.5039 40.8399C41.7383 40.207 41.75 39.9961 41.75 32.8125C41.75 25.6289 41.7383 25.418 41.5039 24.7852C41.0469 23.5547 39.6055 22.5 38.4102 22.5H38V20.9649C38 19.1485 37.8359 18.3867 37.1445 17.0508C36.2305 15.2813 34.3789 13.8164 32.4219 13.3125C31.4375 13.0547 29.3867 13.0781 28.4492 13.3477ZM32.1172 17.332C32.75 17.6485 33.4648 18.3633 33.7695 18.961C34.0508 19.5235 34.25 20.6367 34.25 21.7031V22.5H30.4883H26.7148L26.7852 21.2344C26.8203 20.543 26.9141 19.7813 26.9844 19.5469C27.2773 18.5391 28.3672 17.4258 29.375 17.1094C30.0078 16.9102 31.5547 17.0391 32.1172 17.332ZM38 32.8125V39.375H30.5H23V32.8125V26.25H30.5H38V32.8125Z" fill="white"/>
</svg>
