<svg width="61" height="60" viewBox="0 0 61 60" fill="none" xmlns="http://www.w3.org/2000/svg">
<g clip-path="url(#clip0_38_169)">
<path d="M29.1523 0.281128C28.8359 0.433472 28.1562 0.855347 27.6523 1.21863C27.1484 1.57019 26.6445 1.92175 26.5156 1.99207C26.1289 2.19128 25.4609 2.12097 24.3008 1.74597C23.6797 1.54675 22.8008 1.34753 22.3555 1.3241C20.9844 1.21863 20.293 1.6405 19.0273 3.328C17.7383 5.05066 17.8789 4.96863 15.875 5.05066C13.8711 5.13269 13.3203 5.27332 12.6523 5.87097C12.0781 6.37488 11.7031 7.08972 11.1758 8.68347C10.9648 9.31628 10.6953 9.91394 10.543 10.0546C10.4023 10.1952 9.66406 10.5116 8.90234 10.7811C7.34375 11.3202 6.78125 11.6249 6.27734 12.246C5.76172 12.8671 5.63281 13.453 5.55078 15.3749C5.46875 17.3788 5.55078 17.2382 3.82812 18.5272C2.14062 19.7928 1.71875 20.4843 1.82422 21.8553C1.84766 22.3007 2.04688 23.1796 2.24609 23.8007C2.82031 25.5819 2.82031 25.6171 1.48438 27.4921C0.722656 28.5585 0.5 29.121 0.5 29.9999C0.5 30.9257 0.757812 31.5233 1.73047 32.871C2.10547 33.3866 2.45703 33.9374 2.52734 34.1014C2.59766 34.2655 2.66797 34.4061 2.67969 34.4296C2.69141 34.453 3.125 34.4061 3.65234 34.3241C4.37891 34.2069 4.60156 34.1366 4.60156 33.996C4.60156 33.6561 4.05078 32.66 3.26562 31.535C2.24609 30.0585 2.24609 29.9413 3.26562 28.4647C4.78906 26.285 4.91797 25.5585 4.19141 23.2616C3.96875 22.5468 3.78125 21.8319 3.78125 21.6678C3.78125 21.2225 4.12109 20.8475 5.43359 19.8514C7.20312 18.5155 7.53125 17.8593 7.53125 15.6561C7.53125 14.1678 7.67188 13.5468 8.03516 13.3007C8.17578 13.2186 8.91406 12.9139 9.67578 12.6561C11.9609 11.8358 12.3359 11.4608 13.1562 9.17566C13.4141 8.41394 13.7188 7.67566 13.8008 7.53503C14.0469 7.17175 14.668 7.03113 16.1562 7.03113C18.3594 7.03113 19.0156 6.703 20.3516 4.93347C21.3477 3.62097 21.7227 3.28113 22.168 3.28113C22.332 3.28113 23.0586 3.46863 23.7617 3.69128C26.0586 4.41785 26.7852 4.28894 28.9648 2.7655C29.832 2.15613 30.1719 1.99207 30.5 1.99207C30.8281 1.99207 31.168 2.15613 32.0352 2.7655C34.2148 4.28894 34.9414 4.41785 37.2383 3.69128C37.9531 3.46863 38.668 3.28113 38.832 3.28113C39.2773 3.28113 39.6523 3.62097 40.6484 4.93347C41.9844 6.703 42.6406 7.03113 44.8438 7.03113C46.332 7.03113 46.9531 7.17175 47.1992 7.53503C47.2812 7.67566 47.5742 8.3905 47.832 9.11707C48.418 10.746 48.4766 10.8514 49.0039 11.4022C49.5312 11.9647 49.7891 12.1053 51.418 12.6796C52.1211 12.9374 52.8242 13.2186 52.9648 13.3124C53.3281 13.5468 53.4688 14.1678 53.4688 15.6561C53.4688 17.8593 53.7969 18.5155 55.5664 19.8514C56.8789 20.8475 57.2188 21.2225 57.2188 21.6678C57.2188 21.8319 57.0312 22.5468 56.8086 23.2616C56.082 25.5585 56.2109 26.285 57.7344 28.4647C58.7539 29.9413 58.7539 30.0585 57.7344 31.535C56.9375 32.66 56.3984 33.6561 56.3984 33.996C56.3984 34.1366 56.5391 34.2069 56.9023 34.2538C57.1719 34.2889 57.6172 34.3593 57.8984 34.4061C58.2852 34.4647 58.3906 34.4413 58.3906 34.3124C58.3906 34.2186 58.7422 33.6444 59.1641 33.035C60.2539 31.4764 60.5 30.9257 60.5 29.9999C60.5 29.0858 60.2422 28.4764 59.2812 27.1522C58.9297 26.6483 58.5781 26.1444 58.5078 26.0155C58.3086 25.6288 58.3789 24.9608 58.7539 23.8007C58.9531 23.1796 59.1523 22.3007 59.1758 21.8553C59.2812 20.4843 58.8594 19.7928 57.1719 18.5272C55.4492 17.2382 55.5312 17.3788 55.4492 15.3749C55.3672 13.453 55.2383 12.8671 54.7227 12.246C54.2188 11.6249 53.6562 11.3202 52.0977 10.7811C51.3359 10.5116 50.5977 10.1952 50.457 10.0546C50.3047 9.91394 50.0352 9.31628 49.8242 8.68347C49.2969 7.08972 48.9219 6.37488 48.3477 5.87097C47.6797 5.27332 47.1289 5.13269 45.125 5.05066C43.1211 4.96863 43.2734 5.05066 41.9609 3.31628C40.3672 1.18347 39.3594 0.890503 36.6992 1.74597C35.5391 2.12097 34.8594 2.19128 34.4844 1.99207C34.3555 1.92175 33.8516 1.57019 33.3477 1.21863C32.0234 0.25769 31.4141 -0.00012207 30.5 -0.00012207C29.9492 -0.00012207 29.5742 0.0819092 29.1523 0.281128Z" fill="white"/>
<path d="M27.1602 6.73828C20.375 7.73438 14.2227 11.7422 10.6016 17.5312C8.8086 20.4023 7.56641 23.9062 7.17969 27.1875C7.02735 28.4414 7.05078 32.7188 7.20313 32.8711C7.25 32.918 7.69531 32.918 8.19922 32.8711L9.125 32.7891L9.07813 30.5742C9.00781 27.5156 9.3711 25.2305 10.3438 22.6172C12.5352 16.7344 17.1172 12.1289 23 9.89062C27.6992 8.09766 33.3008 8.09766 38 9.89062C43.8828 12.1289 48.4648 16.7344 50.6562 22.6172C51.6289 25.2305 51.9922 27.5156 51.9219 30.5742L51.875 32.7891L52.8008 32.8711C53.3047 32.918 53.75 32.918 53.7969 32.8711C53.9492 32.7188 53.9727 28.4414 53.8203 27.1875C53.3398 23.1211 51.6641 19.043 49.0859 15.6445C48.1719 14.4375 46.0625 12.3281 44.8555 11.4141C41.5625 8.91797 37.7422 7.30078 33.7461 6.73828C32.2578 6.52734 28.6133 6.52734 27.1602 6.73828Z" fill="white"/>
<path d="M19.25 20.625V21.5625H19.7188H20.1875V26.25V30.9375H21.125H22.0625V25.5469C22.0625 19.1133 22.2266 19.6875 20.4219 19.6875H19.25V20.625Z" fill="white"/>
<path d="M25.0625 19.8516C24.4297 20.0859 23.8203 20.6133 23.4101 21.2695L23.0586 21.832L23.0234 25.0312C23 27.0703 23.0351 28.3945 23.1172 28.6992C23.293 29.3438 23.8906 30.1055 24.582 30.5273C25.1094 30.8555 25.2265 30.8789 26.2812 30.8789C27.3359 30.8789 27.4531 30.8555 27.9805 30.5273C28.6484 30.1172 29.2695 29.3555 29.4453 28.7344C29.5976 28.1602 29.5976 22.4648 29.4453 21.8906C29.2695 21.2695 28.6601 20.5195 28.0039 20.1094C27.5234 19.8164 27.3008 19.7578 26.4805 19.7227C25.8476 19.6992 25.3672 19.7461 25.0625 19.8516ZM27.0898 21.9844C27.289 22.1484 27.5 22.4766 27.5703 22.7109C27.6289 22.9453 27.6875 24.1172 27.6875 25.3125C27.6875 26.5078 27.6289 27.6797 27.5703 27.9141C27.1953 29.2617 25.3672 29.2617 24.9922 27.9141C24.8398 27.3516 24.8398 23.2734 24.9922 22.7109C25.1562 22.1133 25.707 21.6797 26.2812 21.6797C26.5976 21.6797 26.8437 21.7734 27.0898 21.9844Z" fill="white"/>
<path d="M32.5625 19.8516C31.9297 20.0859 31.3203 20.6133 30.9101 21.2695L30.5586 21.832L30.5234 25.0312C30.5 27.0703 30.5351 28.3945 30.6172 28.6992C30.793 29.3438 31.3906 30.1055 32.082 30.5273C32.6094 30.8555 32.7265 30.8789 33.7812 30.8789C34.8359 30.8789 34.9531 30.8555 35.4805 30.5273C36.1484 30.1172 36.7695 29.3555 36.9453 28.7344C37.0976 28.1602 37.0976 22.4648 36.9453 21.8906C36.7695 21.2695 36.1601 20.5195 35.5039 20.1094C35.0234 19.8164 34.8008 19.7578 33.9805 19.7227C33.3476 19.6992 32.8672 19.7461 32.5625 19.8516ZM34.5898 21.9844C34.789 22.1484 35 22.4766 35.0703 22.7109C35.1289 22.9453 35.1875 24.1172 35.1875 25.3125C35.1875 26.5078 35.1289 27.6797 35.0703 27.9141C34.6953 29.2617 32.8672 29.2617 32.4922 27.9141C32.4336 27.6797 32.375 26.5078 32.375 25.3125C32.375 24.1172 32.4336 22.9453 32.4922 22.7109C32.6562 22.1133 33.207 21.6797 33.7812 21.6797C34.0976 21.6797 34.3437 21.7734 34.5898 21.9844Z" fill="white"/>
<path d="M41.7852 25.8164L39.8984 29.6015L40.7773 30.0468C41.2578 30.2812 41.6797 30.4687 41.6914 30.4453C41.7148 30.4218 42.5703 28.7226 43.6016 26.6484L45.4766 22.8984L44.6094 22.4648C44.1289 22.2304 43.7305 22.0312 43.707 22.0312C43.6953 22.0312 42.8281 23.7304 41.7852 25.8164Z" fill="white"/>
<path d="M38.9375 24.375V25.3125H39.875H40.8125V24.375V23.4375H39.875H38.9375V24.375Z" fill="white"/>
<path d="M44.5625 28.125V29.0625H45.5H46.4375V28.125V27.1875H45.5H44.5625V28.125Z" fill="white"/>
<path d="M3.95703 34.9102C3.69922 35.0273 3.32422 35.3086 3.11328 35.5195C2.39844 36.2812 2.375 36.4219 2.375 40.3359C2.375 44.2969 2.39844 44.4375 3.20703 45.1992C3.75781 45.7148 4.34375 45.9375 5.1875 45.9375C6.03125 45.9375 6.61719 45.7148 7.16797 45.1992C7.85938 44.5312 8 44.0859 8 42.3281C8 40.3125 8 40.3125 6.35938 40.3125H5.1875V41.25V42.1875H5.65625C6.11328 42.1875 6.125 42.1992 6.125 42.5977C6.125 43.5703 5.63281 44.0859 4.88281 43.8984C4.33203 43.7578 4.25 43.3008 4.25 40.3125C4.25 37.3242 4.33203 36.8672 4.88281 36.7266C5.63281 36.5391 6.125 37.0547 6.125 38.0273V38.4375H7.0625H8V37.582C7.98828 36.2695 7.41406 35.3203 6.33594 34.875C5.72656 34.6172 4.54297 34.6406 3.95703 34.9102Z" fill="white"/>
<path d="M8.9375 39.2812C8.9375 43.5234 8.96094 43.9219 9.16016 44.3555C9.62891 45.3633 10.5664 45.9375 11.75 45.9375C12.9336 45.9375 13.8711 45.3633 14.3398 44.3555C14.5391 43.9219 14.5625 43.5234 14.5625 39.2812V34.6875H13.625H12.6875V38.8477C12.6875 43.4062 12.6406 43.7461 12.0547 43.8984C11.5391 44.0273 11.1641 43.8516 10.9766 43.418C10.8477 43.0898 10.8125 42.1992 10.8125 38.8477V34.6875H9.875H8.9375V39.2812Z" fill="white"/>
<path d="M17.082 34.9102C16.8242 35.0273 16.4492 35.3086 16.2383 35.5195C15.5 36.293 15.5 36.3164 15.5 41.3672V45.9375H16.4375H17.375V45V44.0625H18.3125H19.25V45V45.9375H20.1875H21.125V41.332C21.125 37.1016 21.1016 36.7031 20.9023 36.2695C20.6328 35.6953 20.0352 35.1094 19.4609 34.875C18.8516 34.6172 17.668 34.6406 17.082 34.9102ZM18.7812 36.7969C19.168 36.9961 19.25 37.5703 19.25 39.9141V42.1875H18.3125H17.375V39.9141C17.375 37.6172 17.4453 37.1016 17.8086 36.8203C18.043 36.6562 18.4766 36.6328 18.7812 36.7969Z" fill="white"/>
<path d="M22.2969 34.9219C22.0742 35.1445 22.0625 35.3086 22.0625 40.5469V45.9375H23H23.9375V44.5195V43.1016L24.957 44.3672C25.5195 45.0703 26.0586 45.7031 26.1641 45.7852C26.2578 45.8672 26.6445 45.9375 27.0195 45.9375H27.6875V45.0117C27.6875 44.1797 27.6641 44.0742 27.4648 44.0391C27.2188 44.0039 25.0742 41.4023 25.168 41.25C25.1914 41.2031 25.3789 41.1328 25.5547 41.0977C26.0586 40.9922 26.8789 40.3242 27.2773 39.668C27.6055 39.1406 27.6289 39.0234 27.6289 37.9688C27.6289 36.9141 27.6055 36.7969 27.2773 36.2695C26.8672 35.6016 26.1055 34.9805 25.4844 34.8047C25.25 34.7461 24.4883 34.6875 23.7969 34.6875C22.6836 34.6875 22.5078 34.7109 22.2969 34.9219ZM24.6641 36.6797C24.8984 36.75 25.2266 36.9609 25.3906 37.1602C26.0117 37.8867 25.625 38.9883 24.6641 39.2578C23.9141 39.457 23.9375 39.5039 23.9375 37.9688C23.9375 36.4336 23.9141 36.4805 24.6641 36.6797Z" fill="white"/>
<path d="M30.207 34.9102C29.9492 35.0273 29.5742 35.3086 29.3633 35.5195C28.625 36.293 28.625 36.3164 28.625 41.3672V45.9375H29.5625H30.5V45V44.0625H31.4375H32.375V45V45.9375H33.3125H34.25V41.332C34.25 37.1016 34.2266 36.7031 34.0273 36.2695C33.7578 35.6953 33.1602 35.1094 32.5859 34.875C31.9766 34.6172 30.793 34.6406 30.207 34.9102ZM31.9062 36.7969C32.293 36.9961 32.375 37.5703 32.375 39.9141V42.1875H31.4375H30.5V39.9141C30.5 37.6172 30.5703 37.1016 30.9336 36.8203C31.168 36.6562 31.6016 36.6328 31.9062 36.7969Z" fill="white"/>
<path d="M35.4219 34.9219C35.1992 35.1445 35.1875 35.3086 35.1875 40.5469V45.9375H36.125H37.0625V43.3242L37.0742 40.7227L38.0586 43.1836C38.6094 44.5312 39.1484 45.7148 39.2539 45.7852C39.5703 46.0195 40.3086 45.9727 40.5781 45.7031C40.8008 45.4805 40.8125 45.3164 40.8125 40.0781V34.6875H39.875H38.9375V37.2891L38.9258 39.9023L37.9414 37.4531C37.4023 36.1172 36.8633 34.9453 36.7461 34.8516C36.418 34.6055 35.6914 34.6523 35.4219 34.9219Z" fill="white"/>
<path d="M41.75 35.625V36.5625H42.6875H43.625V41.25V45.9375H44.5625H45.5V41.25V36.5625H46.4375H47.375V35.625V34.6875H44.5625H41.75V35.625Z" fill="white"/>
<path d="M48.5469 34.9219C48.3242 35.1445 48.3125 35.3086 48.3125 40.3125C48.3125 45.3164 48.3242 45.4805 48.5469 45.7031C48.7695 45.9258 48.9336 45.9375 50.8906 45.9375H53V45V44.0625H51.5938H50.1875V42.6562V41.25H51.5938H53V40.3125V39.375H51.5938H50.1875V37.9688V36.5625H51.5938H53V35.625V34.6875H50.8906C48.9336 34.6875 48.7695 34.6992 48.5469 34.9219Z" fill="white"/>
<path d="M54.1719 34.9219C53.9492 35.1445 53.9375 35.3086 53.9375 40.3125C53.9375 45.3164 53.9492 45.4805 54.1719 45.7031C54.3945 45.9258 54.5586 45.9375 56.5156 45.9375H58.625V45V44.0625H57.2188H55.8125V42.6562V41.25H57.2188H58.625V40.3125V39.375H57.2188H55.8125V37.9688V36.5625H57.2188H58.625V35.625V34.6875H56.5156C54.5586 34.6875 54.3945 34.6992 54.1719 34.9219Z" fill="white"/>
<path d="M6.86328 47.0742L6.125 47.625L6.39453 47.9062C6.83984 48.3984 7.47266 48.7266 8.90234 49.2188C9.66406 49.4883 10.4023 49.8047 10.543 49.9453C10.6953 50.0859 10.9648 50.6836 11.1758 51.3164C11.7031 52.9102 12.0781 53.625 12.6523 54.1289C13.3203 54.7266 13.8711 54.8672 15.875 54.9492C17.8789 55.0312 17.7266 54.9492 19.0391 56.6836C20.6328 58.8164 21.6406 59.1094 24.3008 58.2539C25.4609 57.8789 26.1406 57.8086 26.5156 58.0078C26.6445 58.0781 27.1484 58.4297 27.6523 58.7812C28.9766 59.7422 29.5859 60 30.5 60C31.4141 60 32.0234 59.7422 33.3477 58.7812C33.8516 58.4297 34.3555 58.0781 34.4844 58.0078C34.8711 57.8086 35.5391 57.8789 36.6992 58.2539C37.3203 58.4531 38.1992 58.6523 38.6445 58.6758C40.0156 58.7812 40.707 58.3594 41.9727 56.6719C43.2617 54.9492 43.1211 55.0312 45.125 54.9492C47.1289 54.8672 47.6797 54.7266 48.3477 54.1289C48.9219 53.625 49.2969 52.9102 49.8242 51.3164C50.0352 50.6836 50.3047 50.0859 50.457 49.9453C50.5977 49.8047 51.3359 49.4883 52.0977 49.2188C53.5273 48.7266 54.1602 48.3984 54.6055 47.9062L54.875 47.625L54.1016 47.0508C53.3398 46.5 53.3164 46.4883 53.0117 46.6758C52.8359 46.7812 52.1094 47.0742 51.3945 47.3203C49.8008 47.8945 49.6484 47.9648 49.0977 48.5039C48.5352 49.0312 48.3945 49.2891 47.8203 50.918C47.5625 51.6211 47.2812 52.3242 47.1875 52.4648C46.9531 52.8281 46.332 52.9688 44.8438 52.9688C42.6406 52.9688 41.9844 53.2969 40.6484 55.0664C39.6523 56.3789 39.2773 56.7188 38.832 56.7188C38.668 56.7188 37.9531 56.5312 37.2383 56.3086C34.9414 55.582 34.2148 55.7109 32.0352 57.2344C30.5586 58.2539 30.4414 58.2539 28.9648 57.2344C26.7852 55.7109 26.0586 55.582 23.7617 56.3086C23.0586 56.5312 22.332 56.7188 22.168 56.7188C21.7227 56.7188 21.3477 56.3789 20.3516 55.0664C19.0156 53.2969 18.3594 52.9688 16.1562 52.9688C14.668 52.9688 14.0469 52.8281 13.8125 52.4648C13.7188 52.3242 13.4375 51.6211 13.1797 50.918C12.6055 49.2891 12.4648 49.0312 11.9023 48.5039C11.3398 47.9648 11.1992 47.8945 9.59375 47.3203C8.87891 47.0742 8.17578 46.7812 8.03516 46.6875C7.89453 46.5938 7.73047 46.5234 7.68359 46.5234C7.63672 46.5352 7.26172 46.7812 6.86328 47.0742Z" fill="white"/>
<path d="M16.7773 47.6602C16.4961 48.0234 16.2266 48.3867 16.1797 48.4688C16.0391 48.6797 18.3242 50.1562 20.2461 51.0938C23.6328 52.7578 26.6094 53.4375 30.5 53.4375C34.3906 53.4375 37.3555 52.7578 40.7656 51.0938C42.6758 50.168 44.9609 48.6797 44.8203 48.4688C44.4336 47.8359 43.6953 47.0039 43.5781 47.0742C43.5078 47.1211 42.9687 47.4844 42.3711 47.8828C38.7969 50.2852 34.918 51.4453 30.5 51.4453C26.082 51.4453 22.2031 50.2852 18.6289 47.8828C18.0312 47.4844 17.4922 47.1211 17.4219 47.0742C17.3398 47.0273 17.082 47.2617 16.7773 47.6602Z" fill="white"/>
</g>
<defs>
<clipPath id="clip0_38_169">
<rect width="60" height="60" fill="white" transform="translate(0.5)"/>
</clipPath>
</defs>
</svg>
