<svg width="60" height="60" viewBox="0 0 60 60" fill="none" xmlns="http://www.w3.org/2000/svg">
<g clip-path="url(#clip0_38_222)">
<path d="M23.7891 2.29686C20.7891 3.55077 15.5156 5.74218 12.0703 7.17186C5.3789 9.94921 5.05077 10.125 4.79296 11.0039C4.71093 11.2969 4.68749 13.9219 4.71093 19.4531C4.76952 28.3359 4.78124 28.5469 5.64843 32.3437C8.35546 44.2969 16.8398 54.5391 28.1133 59.4726C29.7773 60.1992 30.2578 60.1992 31.8984 59.4609C40.8516 55.5 48.082 48.293 51.9844 39.4453C53.4141 36.1992 54.3984 32.8008 54.9844 29.0625C55.2422 27.4101 55.2539 27.1172 55.2539 19.1484V10.9336L54.9258 10.5117C54.7383 10.2656 54.4687 9.99608 54.3164 9.89061C54.1523 9.78514 48.7734 7.52343 42.3516 4.85155C31.1719 0.210926 30.6328 -1.14441e-05 29.9531 0.0117073C29.2969 0.0234261 28.7578 0.222645 23.7891 2.29686ZM40.418 9.28124L50.6601 13.5351L50.5898 19.7461C50.5195 26.3437 50.4375 27.4805 49.8633 30.2812C48.2695 38.1211 43.9101 45.3281 37.7109 50.332C35.6133 52.0195 30.7383 54.9609 30.0234 54.9609C29.543 54.9609 26.6367 53.3906 24.5976 52.0195C17.8476 47.4961 12.668 40.1953 10.6172 32.3437C9.62109 28.5 9.49218 27.2109 9.41015 19.7461L9.33984 13.5351L19.5234 9.29296C25.125 6.96093 29.8125 5.05077 29.9414 5.05077C30.0703 5.03905 34.7812 6.94921 40.418 9.28124Z" fill="white"/>
<path d="M38.6133 20.6132C38.4258 20.66 38.1328 20.7655 37.9687 20.8475C37.8047 20.9296 35.3672 23.2968 32.5547 26.1093L27.4219 31.2304L24.8789 28.6874C23.2383 27.0585 22.1719 26.0741 21.8906 25.9686C20.7891 25.4999 19.4414 25.8866 18.8555 26.8124C18.5742 27.2694 18.5156 27.4686 18.5156 28.1249C18.5156 28.7811 18.5625 28.9804 18.8555 29.4257C19.2891 30.0936 25.8398 36.5975 26.332 36.8436C26.8125 37.078 27.8789 37.0897 28.4531 36.8554C29.0508 36.6093 40.9219 24.7499 41.25 24.0702C41.6133 23.3202 41.5664 22.3358 41.1445 21.6444C40.6172 20.8358 39.5273 20.3905 38.6133 20.6132Z" fill="white"/>
</g>
<defs>
<clipPath id="clip0_38_222">
<rect width="60" height="60" fill="white"/>
</clipPath>
</defs>
</svg>
